<svg xmlns="http://www.w3.org/2000/svg" width="680" height="100" fill="none" viewBox="0 0 680 100"><path fill="#88b04b" d="M97.619 1.652A5.3 5.3 0 0 0 94.21.104C74.267-1.123 61.358 8.956 54.508 18.428 47.634 8.956 34.736-1.135 14.78.104a5.32 5.32 0 0 0-3.42 1.548C-1.443 14.46-.043 34.63.129 36.603c.08 1.434.906 11.376 7.424 22.786 6.243 10.928 19.129 25.468 45.13 32.76.127.047.276.081.414.127.103.034.195.046.299.069.126.034.263.045.401.069.23.046.47.046.7.046s.447 0 .665-.046c.127-.024.241-.046.368-.058.114-.023.218-.046.333-.08.149-.046.298-.08.459-.126 48.057-13.508 52.222-51.832 52.509-55.42.126-1.17 1.882-21.971-11.223-35.067zM49.217 46.247l-.046-.046-14.23-15.32c-1.984-2.144-5.347-2.27-7.48-.286-2.147 1.995-2.273 5.343-.288 7.476l21.998 23.691.046.046v18.14h-.046C12.739 66.67 10.765 37.28 10.708 35.985c0-.092-.023-.195-.023-.287-.023-.16-1.389-15.297 6.827-25.113h.643c20.93 0 29.25 15.802 31.017 19.781 0 .035.034.057.046.092zm49.09-10.538c0 .08-.024.183-.024.264-.069 1.318-2.042 30.697-38.475 43.941-.023 0-.035 0-.046.023v-18.13l.046-.045 21.997-23.691c1.985-2.133 1.86-5.481-.287-7.476a5.31 5.31 0 0 0-7.493.286L59.81 46.201l-.046.046v-15.79s.035-.069.046-.115C61.565 26.421 70 10.585 90.85 10.585h.608c8.158 9.758 6.85 24.963 6.839 25.112z"/><path fill="#36485c" d="M196.82 4.323c.849 0 1.584.31 2.192.929.62.619.93 1.353.93 2.19v8.199c0 .848-.31 1.582-.93 2.19s-1.354.929-2.192.929h-36.88v23.576h34.574c.849 0 1.583.31 2.192.929.608.62.929 1.353.929 2.19v8.199c0 .849-.31 1.583-.929 2.19-.62.608-1.354.929-2.192.929H159.94v26.466c0 .849-.31 1.583-.929 2.19-.62.608-1.354.929-2.192.929h-9.364c-.849 0-1.583-.31-2.191-.929-.62-.619-.93-1.353-.93-2.19V7.453c0-.848.31-1.582.93-2.19.619-.62 1.354-.929 2.191-.929h49.377zm13.816 25.08c0-.849.31-1.583.93-2.19.619-.62 1.354-.929 2.192-.929h8.789c.85 0 1.584.31 2.192.929s.93 1.353.93 2.19v29.344c0 4.622.986 8.325 2.949 11.089 1.962 2.775 5.186 4.162 9.651 4.162q6.126 0 9.362-4.162c2.157-2.775 3.237-6.467 3.237-11.089V29.403c0-.849.309-1.583.928-2.19.621-.608 1.356-.929 2.193-.929h8.788c.85 0 1.585.31 2.194.929.606.619.93 1.353.93 2.19v53.85c0 .848-.312 1.582-.93 2.19q-.933.928-2.194.928h-8.788c-.849 0-1.584-.31-2.193-.928-.619-.62-.928-1.354-.928-2.19v-2.661c-1.779 1.777-3.972 3.371-6.586 4.793-2.616 1.422-5.785 2.133-9.48 2.133-4.704 0-8.594-.734-11.681-2.19-3.087-1.468-5.554-3.429-7.401-5.894-1.848-2.466-3.156-5.333-3.936-8.612-.769-3.28-1.159-6.72-1.159-10.343V29.403zm82.883 53.848c0 .849-.309 1.582-.93 2.19-.617.62-1.351.929-2.189.929h-8.791c-.85 0-1.585-.31-2.191-.929-.621-.62-.93-1.353-.93-2.19V7.454c0-.849.309-1.583.93-2.19.617-.62 1.354-.93 2.191-.93h8.791q1.274 0 2.189.93c.621.619.93 1.353.93 2.19zm27.849 0c0 .849-.311 1.582-.929 2.19-.62.62-1.354.929-2.192.929h-8.788q-1.278 0-2.195-.929c-.617-.62-.926-1.353-.926-2.19V7.454c0-.849.309-1.583.926-2.19.621-.62 1.358-.93 2.195-.93h8.788c.848 0 1.583.31 2.192.93.607.619.929 1.353.929 2.19zm82.035-30.972c-.149 1.158-.23 2.5-.23 4.047 0 1.549.081 2.89.23 4.048q.346 3.579 1.618 6.124c.85 1.697 1.904 3.062 3.177 4.105a12.9 12.9 0 0 0 4.224 2.316 15.1 15.1 0 0 0 4.741.746c1.926 0 3.544-.15 4.852-.459 1.306-.31 2.433-.745 3.351-1.33s1.71-1.227 2.376-1.96a21.5 21.5 0 0 0 1.905-2.49c.458-.687.997-1.387 1.617-2.075.618-.688 1.355-1.043 2.192-1.043h8.791c.848 0 1.593.31 2.246.928.656.62.943 1.354.872 2.19-.078 1.618-.653 3.578-1.733 5.895q-1.613 3.475-5.026 6.64c-2.27 2.11-5.185 3.91-8.732 5.377-3.546 1.468-7.78 2.19-12.711 2.19-4.234 0-8.057-.71-11.454-2.133q-5.096-2.132-8.846-5.779a26.9 26.9 0 0 1-5.898-8.44 31.5 31.5 0 0 1-2.606-10.114 43 43 0 0 1-.23-4.62c0-1.698.081-3.28.23-4.737a28.9 28.9 0 0 1 2.55-10.171q2.197-4.85 5.895-8.497 3.7-3.646 8.848-5.78c3.43-1.421 7.263-2.132 11.511-2.132 4.931 0 9.165.734 12.711 2.19 3.547 1.468 6.462 3.257 8.732 5.378q3.413 3.183 5.026 6.64c1.08 2.316 1.655 4.276 1.733 5.894.082.848-.205 1.582-.872 2.19-.653.619-1.409.929-2.246.929h-8.791c-.851 0-1.582-.344-2.192-1.044a18 18 0 0 1-1.617-2.075 23 23 0 0 0-1.905-2.489 10.6 10.6 0 0 0-2.376-1.96c-.932-.574-2.045-1.021-3.351-1.331-1.308-.31-2.926-.459-4.852-.459-1.617 0-3.202.253-4.741.746a13 13 0 0 0-4.224 2.316c-1.273 1.043-2.327 2.408-3.177 4.105q-1.272 2.546-1.618 6.124m79.578-12.131c-4.625 0-7.965 1.02-10.008 3.061s-3.064 5.378-3.064 10v30.043c0 .849-.309 1.583-.929 2.19-.618.609-1.354.93-2.192.93h-8.791q-1.273 0-2.189-.93c-.62-.618-.929-1.353-.929-2.19V29.403c0-.849.309-1.583.929-2.19.618-.62 1.352-.929 2.189-.929h8.791c.851 0 1.585.31 2.192.929.62.619.929 1.353.929 2.19v2.66c2.008-1.846 4.145-3.28 6.416-4.277 2.273-.998 5.255-1.502 8.962-1.502h.85c.848 0 1.582.31 2.189.929.61.619.932 1.353.932 2.19v7.626c0 .848-.311 1.582-.932 2.19-.617.619-1.352.929-2.189.929zm29.241-35.825c.848 0 1.582.31 2.189.929.621.619.929 1.353.929 2.19v9.013c0 .848-.308 1.582-.929 2.19-.618.608-1.352.929-2.189.929h-9.951c-.848 0-1.585-.31-2.191-.929-.607-.62-.93-1.353-.93-2.19V7.453c0-.848.309-1.582.93-2.19.62-.608 1.354-.929 2.191-.929h9.951zm2.547 78.916c0 .849-.309 1.583-.929 2.19-.621.608-1.355.929-2.192.929h-8.791c-.848 0-1.585-.31-2.192-.929s-.929-1.353-.929-2.19V29.401c0-.848.308-1.582.929-2.19.62-.608 1.354-.929 2.192-.929h8.791c.848 0 1.582.31 2.192.929.606.62.929 1.353.929 2.19v53.85zm45.16 4.291c-2.387 0-4.532-.23-6.413-.689s-3.546-1.043-4.971-1.731c-1.422-.688-2.639-1.445-3.636-2.248-.999-.803-1.815-1.56-2.432-2.247v24.608c0 .849-.309 1.583-.93 2.19-.62.608-1.354.929-2.191.929h-8.792a2.96 2.96 0 0 1-2.191-.929c-.607-.619-.93-1.353-.93-2.19v-75.82c0-.849.309-1.583.93-2.19.62-.62 1.354-.93 2.191-.93h8.792c.848 0 1.582.31 2.191.93.607.619.93 1.352.93 2.19v2.66c.617-.688 1.422-1.445 2.432-2.248 1.008-.802 2.214-1.559 3.636-2.247 1.425-.688 3.089-1.273 4.971-1.732 1.891-.458 4.026-.688 6.413-.688 3.858 0 7.344.746 10.465 2.248s5.784 3.509 7.973 6.009c2.195 2.5 3.937 5.39 5.202 8.669a31.8 31.8 0 0 1 2.132 10.228c.081 1.159.114 2.5.114 4.048s-.033 2.89-.114 4.048a32.1 32.1 0 0 1-2.132 10.229c-1.276 3.28-3.007 6.158-5.202 8.669-2.189 2.5-4.852 4.506-7.973 6.009-3.121 1.502-6.607 2.247-10.465 2.247zm10.753-27.969q.345-3.233 0-6.467c-.461-5.011-2.008-8.612-4.625-10.802S560.241 39 556.464 39c-3.774 0-6.955 1.112-9.536 3.348-2.582 2.236-4.061 5.435-4.451 9.587-.149 1.158-.231 2.614-.231 4.391s.082 3.234.231 4.392c.39 4.002 1.869 7.167 4.451 9.472 2.581 2.316 5.762 3.463 9.536 3.463 3.777 0 6.976-1.1 9.593-3.291s4.164-5.802 4.625-10.802m25.314-33.541V7.454c0-.849.309-1.583.929-2.19.618-.62 1.355-.93 2.192-.93h8.789c.848 0 1.584.31 2.191.93.61.619.932 1.353.932 2.19v18.829h14.914q1.278 0 2.195.928c.617.62.929 1.353.929 2.19v7.626c0 .849-.312 1.583-.929 2.19-.621.608-1.358.93-2.195.93h-14.914V64.64c0 2.385.629 4.3 1.902 5.722 1.276 1.422 3.638 2.133 7.117 2.133h7.057c.848 0 1.583.31 2.189.929.621.619.932 1.353.932 2.19v7.626c0 .848-.311 1.582-.932 2.19-.62.607-1.351.928-2.189.928h-8.561c-7.241 0-12.817-1.754-16.71-5.251-3.887-3.51-5.838-8.876-5.838-16.123zM366.339 69.205c0-.849-.277-1.548-.816-2.087-.536-.54-1.493-1.044-2.845-1.502-1.354-.459-3.156-.93-5.393-1.388a471 471 0 0 1-8.583-1.858c-3.408-.768-6.231-1.743-8.469-2.9-2.249-1.159-4.039-2.512-5.394-4.06a13.24 13.24 0 0 1-2.845-5.275c-.539-1.972-.815-4.117-.815-6.433 0-2.317.539-4.598 1.628-6.834 1.081-2.236 2.65-4.232 4.695-5.975 2.054-1.743 4.543-3.153 7.483-4.231 2.937-1.078 6.299-1.629 10.097-1.629s7.171.425 10.157 1.273c2.969.849 5.505 1.973 7.593 3.36q3.135 2.082 4.88 4.816 1.734 2.718 1.969 5.505c.081.848-.214 1.582-.869 2.201-.653.62-1.412.929-2.263.929h-8.926c-1.157 0-2.032-.218-2.617-.642-.572-.424-1.214-.906-1.916-1.445-.699-.539-1.631-1.02-2.787-1.445-1.16-.424-2.902-.642-5.221-.642-2.316 0-4.373.344-6.153 1.044-1.777.7-2.66 1.938-2.66 3.715 0 .849.206 1.56.642 2.144.425.585 1.238 1.101 2.433 1.56s2.855.952 4.993 1.444c2.121.505 4.887 1.101 8.295 1.8 6.884 1.469 11.739 3.774 14.562 6.904 2.82 3.13 4.235 7.018 4.235 11.65 0 2.317-.586 4.576-1.748 6.778-1.157 2.201-2.844 4.174-5.047 5.917s-4.912 3.13-8.125 4.174c-3.213 1.043-6.824 1.56-10.842 1.56-4.015 0-7.713-.483-10.845-1.446-3.131-.963-5.781-2.224-7.94-3.772-2.168-1.548-3.834-3.28-4.99-5.218-1.16-1.926-1.78-3.83-1.859-5.676-.081-.848.203-1.583.87-2.202.655-.619 1.414-.929 2.262-.929h8.927c1.159 0 2.031.276 2.606.815q.872.809 1.972 1.857c.734.7 1.756 1.319 3.075 1.858 1.308.539 3.283.814 5.922.814 1.157 0 2.352-.08 3.59-.23a16.8 16.8 0 0 0 3.421-.756c1.044-.355 1.916-.814 2.604-1.388.688-.573 1.046-1.295 1.046-2.144zm308.243-48.9c0 10.566-7.027 17.597-17.609 17.597s-17.61-7.031-17.61-17.597 7.068-17.598 17.61-17.598c10.547 0 17.609 7.032 17.609 17.598m-32.006 0c0 8.635 5.763 14.464 14.397 14.464 8.639 0 14.467-5.83 14.467-14.464S665.686 5.84 656.973 5.84s-14.397 5.829-14.397 14.464m15.405-8.89c3.925 0 6.133 2.004 6.133 5.283 0 2.404-1.571 3.898-3.478 4.518-.407.145-.407.255-.036.437 1.306.765 2.021 1.712 2.506 2.988l1.756 3.898c.187.4 0 .62-.412.62h-2.357c-.292 0-.485-.146-.636-.438l-1.193-2.878c-1.013-2.186-2.056-3.28-4.862-3.28h-1.607v6.049c0 .328-.187.546-.564.546h-2.199c-.342 0-.564-.182-.564-.546v-16.65c0-.328.184-.547.564-.547h6.989zm-4.221 8.27h3.099c2.506 0 4.077-.91 4.077-2.732 0-1.712-1.27-2.441-2.955-2.441h-4.221z"/></svg>