<svg xmlns="http://www.w3.org/2000/svg" viewBox="0 0 1798 784">
  <path fill="#9D1D20" d="M186 61c3.63 1.45 6.74 2.88 10.11 4.77.99.55 1.98 1.1 3 1.67 1.05.6 2.11 1.19 3.2 1.81 1.11.62 2.22 1.25 3.36 1.89 9.47 5.34 18.86 10.8 28.24 16.3a3228.205 3228.205 0 0 0 22.24 12.88c2.19 1.27 4.38 2.53 6.57 3.79 5.43 3.13 10.85 6.26 16.28 9.39 2.17 1.25 4.33 2.5 6.5 3.75l39 22.5c1.07.62 2.15 1.24 3.25 1.88 2.17 1.24 4.33 2.49 6.5 3.74l16.32 9.42c11.01 6.34 22.01 12.69 32.99 19.09 1.04.6 2.07 1.2 3.14 1.82 1.42.82 1.42.82 2.87 1.67.83.48 1.67.97 2.53 1.47C394 180 394 180 395 181c.15 3.08.24 6.13.28 9.21l.06 2.97.15 9.93.12 7.08c.35 21.61.55 43.22.72 64.83l.06 8.68.02 2.18c.1 11.63.28 23.26.5 34.89.22 11.95.35 23.9.39 35.85.03 6.71.1 13.41.27 20.11 1.03 42.11 1.03 42.11-4.93 49.85-5.53 5.22-11.55 7.78-18.85 9.65-3.8 1.05-6.61 2.76-9.91 4.89-1.92 1.11-3.84 2.21-5.76 3.32-2.18 1.26-4.36 2.52-6.55 3.77-1.08.63-2.17 1.25-3.29 1.9-4.35 2.5-8.69 5.01-13.04 7.52-2.15 1.24-4.29 2.48-6.44 3.71-5.1 2.94-10.2 5.89-15.29 8.86-2.42 1.41-4.84 2.81-7.26 4.22-1.72 1-3.44 2-5.15 3.01-1.55.9-1.55.9-3.13 1.82-1.37.8-1.37.8-2.77 1.61C293 482 293 482 291 482v241c-3.09-1.23-5.74-2.31-8.58-3.89l-2.04-1.13c-1.08-.61-1.08-.61-2.19-1.23-.78-.44-1.56-.87-2.37-1.32-8.55-4.8-17.02-9.77-25.48-14.73-6.39-3.74-12.8-7.44-19.22-11.14-1.07-.62-2.15-1.24-3.27-1.88-2.19-1.27-4.38-2.53-6.57-3.79-5.43-3.13-10.85-6.26-16.28-9.39-2.17-1.25-4.33-2.5-6.5-3.75-21.67-12.5-43.33-25-65-37.5-1.07-.62-2.15-1.24-3.25-1.88-2.16-1.24-4.31-2.48-6.46-3.72-5.05-2.92-10.11-5.84-15.18-8.74l-7.14-4.11c-1.67-.96-3.35-1.92-5.02-2.88-1.02-.58-2.04-1.17-3.09-1.78-.89-.51-1.79-1.02-2.7-1.55-.88-.52-1.76-1.05-2.66-1.59-1.03-.49-2.06-.99-3.12-1.5-3.11-2.7-3.31-2.95-3.62-6.77-.02-1.8-.02-3.6.02-5.4l-.02-3c-.01-3.34.03-6.67.06-10v-7.15c-.01-5.81.02-11.62.06-17.43.04-6.76.05-13.52.06-20.28.01-12.06.05-24.11.11-36.17.05-11.71.09-23.42.12-35.13 0-.72 0-1.44.01-2.18A38675.01 38675.01 0 0 1 82 361c3.57-2.06 7.14-4.12 10.7-6.18 1.21-.69 2.42-1.39 3.63-2.09 6.35-3.66 12.7-7.33 19.05-10.98 10.22-5.89 20.43-11.8 30.62-17.75 2.95-1.72 5.89-3.44 8.84-5.16 2.24-1.3 4.47-2.6 6.7-3.91 3.02-1.76 6.05-3.52 9.08-5.28 1.73-1.01 3.45-2.02 5.18-3.03 1.04-.6 2.09-1.21 3.16-1.83 1.39-.81 1.39-.81 2.81-1.64C184 302 184 302 186 302V61Z"/>
  <path fill="#C92127" d="M290 245c.78 2.77 1.12 5.22 1.11 8.1 0 .81-.01 1.63-.01 2.46l-.02 2.69c0 .95 0 1.89-.01 2.87-.01 3.18-.03 6.36-.05 9.54l-.03 6.83c-.02 6.19-.06 12.37-.09 18.56l-.09 19.39c-.05 10.85-.11 21.7-.16 32.56-.06 11.17-.12 22.35-.17 33.53 0 .68 0 1.37-.01 2.08-.01 3.46-.03 6.92-.05 10.37-.13 28.67-.27 57.35-.42 86.02-9.67-1.73-21.16-8.05-29-14l-1-3c-1.87-.8-1.87-.8-4.06-1.19-.74-.16-1.47-.31-2.23-.48-.56-.11-1.13-.22-1.71-.33v-2l-1.67-.34c-2.73-.77-5.06-1.93-7.58-3.22-.89-.46-1.78-.91-2.7-1.38-1.02-.53-1.02-.53-2.05-1.06v-2c-1.28-.27-2.56-.54-3.88-.81-3.62-.76-3.92-.89-6.12-4.19-2.24-1.34-2.24-1.34-4.81-2.5-3.52-1.68-6.87-3.45-10.19-5.5-.74-.35-1.49-.7-2.25-1.06C209 436 209 436 208 434c-3.6-1.76-6.34-2.91-10.31-3.44-.89-.18-1.78-.37-2.69-.56-1.19-2-1.19-2-2-4l-3-1c-.25-2.31-.25-2.31 0-5 2.04-1.98 3.12-3 6-3l1-3c2.33-1.02 4.66-2.01 7-3l2-3c2.82-.95 2.82-.95 6.12-1.69 1.65-.37 1.65-.37 3.33-.76 1.26-.27 1.26-.27 2.55-.55v-2c3-2 3-2 6.38-2.81 3.76-.93 3.76-.93 6.24-3.81 2.38-2.38 2.38-2.38 5.19-2.69 1.09.15 1.09.15 2.19.31v-2l6-2v-2c2.65-1.08 5.28-2.09 8-3v-2c.96-.46 1.93-.92 2.92-1.39 1.28-.62 2.55-1.24 3.83-1.86l1.92-.91c2.92-1.43 5.24-2.75 7.55-5.06 1.78-1.78 1.78-1.78 5.53-2.03 1.07.08 2.14.17 3.25.25l1-3h2v-2c5.75-3 5.75-3 8-3-2.28-4.76-4.89-6.37-9.56-8.69-6.29-3.16-6.29-3.16-8.44-5.31-1.66-.68-3.33-1.35-5-2l-3-2v-2c-.66-.08-1.32-.17-2-.25-4.37-1.09-9.2-2.83-12.34-6.18-1.9-1.8-3.67-2.68-6.04-3.76-1.26-.58-1.26-.58-2.54-1.18-.87-.39-1.74-.79-2.64-1.19-1.73-.79-3.47-1.58-5.19-2.38-.77-.35-1.54-.7-2.33-1.05C227 327 227 327 225 325v-3l-3.44-.12c-4.56-.58-7.32-2.47-10.99-5.13-4.04-2.75-8.4-4.9-12.75-7.14-2.41-1.38-4.11-2.44-5.82-4.61v-2h-6v238c-5 0-5 0-7-1l-1 6c-.76.1-1.53.21-2.31.31-3.02.77-3.71 1.38-5.69 3.69-2.89 3.25-5.78 5.58-9.5 7.77-.9.53-1.79 1.05-2.71 1.59-.92.54-1.84 1.08-2.79 1.64-.86.51-1.72 1.02-2.61 1.54-2.75 1.62-5.51 3.23-8.27 4.84-1.02.59-2.04 1.19-3.1 1.8-9.26 5.4-18.57 10.73-27.89 16.03-5.37 3.06-10.72 6.13-16.06 9.25-1.33.77-1.33.77-2.68 1.57-1.63.95-3.26 1.91-4.88 2.87-5.29 3.1-5.29 3.1-7.51 3.1V361c26.8-15.46 26.8-15.46 36.31-20.94 9.24-5.33 18.48-10.68 27.69-16.06 4-2.33 8-4.67 12-7 .85-.5.85-.5 1.72-1 3.57-2.09 7.15-4.17 10.73-6.24 1.7-.99 3.39-1.97 5.09-2.96 1.03-.6 2.06-1.2 3.13-1.82.91-.52 1.82-1.05 2.76-1.6 2.47-1.33 4.96-2.34 7.57-3.38 2.94-1.84 5.55-3.55 8-6 .91-.3 1.83-.6 2.77-.91 3.4-1.15 5.96-2.64 8.98-4.59 8.98-5.69 18.32-10.74 27.66-15.81.79-.43 1.57-.86 2.39-1.3.71-.39 1.42-.77 2.15-1.17 2.11-1.21 2.11-1.21 4.16-2.81 2.19-1.63 4.36-2.41 6.89-3.41 1.66-1.02 3.31-2.06 4.94-3.12 3.85-2.38 6.42-3.61 11.06-2.88v-2c9.41-1.33 9.41-1.33 14 0v-2h-7l2-3c2.62-.19 2.62-.19 5 0l.75-1.88c1.76-2.98 3.78-4.12 7.25-4.12Z"/>
  <path fill="#828485" d="M186 61c3.63 1.45 6.74 2.88 10.11 4.77.99.55 1.98 1.1 3 1.67 1.05.6 2.11 1.19 3.2 1.81 1.11.62 2.22 1.25 3.36 1.89 9.47 5.34 18.86 10.8 28.24 16.3a3228.205 3228.205 0 0 0 22.24 12.88c2.19 1.27 4.38 2.53 6.57 3.79 5.43 3.13 10.85 6.26 16.28 9.39 2.17 1.25 4.33 2.5 6.5 3.75l39 22.5c1.07.62 2.15 1.24 3.25 1.88 2.17 1.24 4.33 2.49 6.5 3.74l16.32 9.42c5.39 3.1 10.78 6.21 16.16 9.33 2.82 1.62 5.65 3.25 8.47 4.87 2.79 1.6 5.58 3.21 8.36 4.82 1.04.6 2.07 1.19 3.14 1.8.95.55 1.89 1.1 2.87 1.66 1.25.72 1.25.72 2.53 1.46C394 180 394 180 395 182c-1.02.56-2.04 1.12-3.09 1.7-10.03 5.51-19.94 11.2-29.81 16.99-6.47 3.78-12.96 7.54-19.48 11.25-22.64 12.86-22.64 12.86-45.06 26.12-15.05 9.1-15.05 9.1-20.56 10.94-.4.6-.79 1.2-1.2 1.82-2.62 3.17-5.86 4.42-9.55 6.12-5.55 2.58-10.31 5.45-15.25 9.06-2.33 1-4.67 2-7 3a541.96 541.96 0 0 0-4.81 3.56c-3.36 2.21-6.96 3.88-10.57 5.64-8.13 3.99-16.35 8.24-23.62 13.68-2.99 2.12-5.54 3.02-9 4.12-1.58 1.42-1.58 1.42-3 3-4.56 3-4.56 3-7 3V61Zm105 422v240c-3.09-1.23-5.74-2.31-8.58-3.89l-2.04-1.13c-.72-.4-1.45-.81-2.19-1.23-1.17-.65-1.17-.65-2.37-1.32-8.55-4.8-17.02-9.77-25.48-14.73-6.39-3.74-12.8-7.44-19.22-11.14-1.07-.62-2.15-1.24-3.27-1.88-2.19-1.27-4.38-2.53-6.57-3.79-5.43-3.13-10.85-6.26-16.28-9.39-2.17-1.25-4.33-2.5-6.5-3.75-21.67-12.5-43.33-25-65-37.5-1.61-.93-1.61-.93-3.25-1.88-2.16-1.24-4.31-2.48-6.46-3.72-5.05-2.92-10.11-5.84-15.18-8.74l-7.14-4.11c-1.67-.96-3.35-1.92-5.02-2.88-4.93-2.83-9.78-5.68-14.45-8.92 2.98-2.33 6.06-4.27 9.34-6.15 1.58-.91 1.58-.91 3.19-1.84 1.69-.96 1.69-.96 3.41-1.95 1.17-.67 2.35-1.35 3.53-2.03 6.24-3.58 12.49-7.15 18.74-10.71 8.01-4.56 15.98-9.18 23.91-13.88 1.36-.81 1.36-.81 2.75-1.63 3.63-2.14 7.26-4.29 10.88-6.45 2.62-1.57 5.25-3.12 7.87-4.67.79-.48 1.58-.95 2.39-1.44.73-.43 1.46-.86 2.22-1.3.63-.38 1.27-.76 1.92-1.15 1.85-.8 1.85-.8 5.85-.8.5-1.49.5-1.49 1-3 2.15-1.39 2.15-1.39 4.94-2.81 3.8-1.99 7.52-4.02 11.18-6.25 3.27-1.98 6.56-3.93 9.88-5.82.72-.4 1.44-.81 2.19-1.24C209 529 209 529 211 529v-2c.89-.44 1.79-.87 2.71-1.32 6.49-3.18 12.81-6.47 18.97-10.26 2.41-1.48 4.85-2.9 7.32-4.3.72-.4 1.44-.81 2.19-1.24C244 509 244 509 246 509v-2c.62-.29 1.23-.58 1.87-.88 4.37-2.12 8.52-4.28 12.51-7.06 4.35-3 8.93-5.24 13.68-7.54 3.55-1.84 6.77-3.99 10-6.32 2.2-1.36 4.32-2.2 6.94-2.2Z"/>
  <path fill="#9C9EA1" d="M290 121c4.53 1.65 8.62 3.9 12.81 6.25.78.44 1.56.87 2.37 1.32 8.55 4.8 17.02 9.77 25.48 14.73 6.39 3.74 12.8 7.44 19.22 11.14 1.06.61 2.13 1.23 3.22 1.86 5.1 2.94 10.2 5.87 15.3 8.8 2.38 1.37 4.75 2.73 7.13 4.1 1.67.96 3.35 1.92 5.02 2.88 4.93 2.83 9.78 5.68 14.45 8.92-2.93 2.29-5.94 4.2-9.16 6.05l-3.11 1.78c-1.11.64-2.22 1.27-3.35 1.92-1.17.67-2.34 1.34-3.5 2.01-2.42 1.39-4.84 2.78-7.27 4.17-5.58 3.2-11.16 6.42-16.73 9.63-1.08.62-2.15 1.24-3.25 1.88-8.32 4.79-16.61 9.63-24.89 14.47-7.77 4.54-15.58 9.01-23.41 13.45-.82.46-1.64.93-2.48 1.41-.72.41-1.45.82-2.19 1.24-1.63.88-1.63.88-2.66 1.99-3.31.31-3.31.31-7 0-2.19-1.81-2.19-1.81-4-4-2.27-1.97-3.94-2.98-6.81-3.94-5.05-1.68-9.15-4.28-13.38-7.44-4.01-2.94-8.41-4.97-12.88-7.14-3.19-1.61-6.17-3.43-9.17-5.38-2.49-1.56-5.11-2.84-7.76-4.1v-2c-.91-.27-1.81-.54-2.75-.81-3.02-1.11-4.75-2.25-7.25-4.19-.76-.29-1.52-.59-2.3-.89-2.87-1.18-5.19-2.64-7.76-4.36-5.76-3.74-11.75-6.8-17.94-9.75v-2l-6-1c.16-1.8.16-1.8 1-4 2.47-1.63 2.47-1.63 5.5-3.12 3.96-1.7 3.96-1.7 6.5-4.88 3.52-2.41 6.98-3.66 11-5 3.68-1.83 3.68-1.83 6-5 2.9-1.37 4.76-2 8-2v-2c2.97-.5 2.97-.5 6-1v-2h2v-2c.98-.39 1.96-.79 2.97-1.19 4.4-1.89 8.43-4.28 12.53-6.75 1.45-.86 2.9-1.72 4.34-2.59.7-.41 1.4-.83 2.12-1.26 2.99-1.77 6.02-3.49 9.04-5.21.71-.42 1.42-.84 2.14-1.27 4.64-2.73 4.64-2.73 6.86-2.73v-2c.93-.43 1.86-.87 2.81-1.31 3.09-1.43 3.09-1.43 4.69-3.25 2.17-2.09 4.66-2.57 7.5-3.44l1-1Z"/>
  <path fill="#9C9DA1" d="M189 543c3.11 1.31 3.11 1.31 6.31 3l3.24 1.69c.81.43 1.62.86 2.45 1.31v2c.76.27 1.53.54 2.31.81 2.69 1.19 2.69 1.19 4.07 2.63 1.93 1.86 3.99 2.62 6.46 3.61 6.59 2.89 12.58 6.42 18.16 10.95 1.92 1.01 3.87 1.93 5.82 2.86 2.41 1.26 4.57 2.72 6.8 4.26 3.39 2.33 6.45 3.63 10.38 4.88 1.14.93 1.14.93 2.31 1.87 2.74 2.17 5.35 3.58 8.5 5.07 4.96 2.41 9.58 5.06 14.19 8.06 1.66 1.01 3.33 2.01 5 3 1.67 1 3.33 2 5 3-2.82 3.13-5.08 4.56-9 6-1.68.98-3.34 1.98-5 3-2.04 1.21-4.08 2.42-6.12 3.62-1.04.62-2.07 1.23-3.14 1.86C264 618 264 618 261 619c-.43.45-.87.91-1.31 1.38-2.64 2.53-5.97 4.62-9.69 4.62v2c-.56.23-1.11.46-1.69.7-4.02 1.72-7.78 3.51-11.43 5.92-3.55 2.32-6.76 3.44-10.88 4.38v2c-1.43.84-2.87 1.67-4.31 2.5-1.2.7-1.2.7-2.43 1.41C217 645 217 645 214 645v2c-2.95 2.74-3.77 3-8 3v2c-3.09 1.76-4.23 2-8 2v2l-4 1v2c-1.11.47-2.23.95-3.38 1.44-1.89.81-3.78 1.64-5.62 2.56-2.2-1.03-2.2-1.03-4.97-2.66-1.03-.6-2.06-1.2-3.13-1.82-1.12-.67-2.24-1.33-3.4-2.02-1.18-.69-2.35-1.38-3.53-2.06-2.44-1.44-4.89-2.87-7.33-4.31-5.53-3.24-11.09-6.43-16.64-9.63-2.16-1.25-4.33-2.5-6.49-3.75-4.36-2.51-8.72-5.02-13.08-7.54-5.39-3.1-10.78-6.21-16.16-9.33-2.82-1.62-5.65-3.25-8.47-4.87-2.79-1.6-5.58-3.21-8.36-4.82-1.56-.89-1.56-.89-3.14-1.8-.95-.55-1.89-1.1-2.87-1.66-.83-.48-1.67-.96-2.53-1.46C83 604 83 604 82 602c1.02-.56 2.04-1.12 3.09-1.7 10.02-5.51 19.92-11.19 29.79-16.97 6.73-3.94 13.47-7.84 20.24-11.71.87-.49 1.74-.99 2.64-1.5l11.13-6.33c1.16-.66 2.32-1.32 3.49-1.98 1.07-.61 2.15-1.22 3.26-1.85 2.49-1.45 4.95-2.93 7.41-4.45.68-.42 1.36-.83 2.06-1.27 1.31-.8 2.62-1.62 3.92-2.45 3.37-2.08 4.89-2.79 8.97-2.79l1-3c3.46-2.6 5.72-3.42 10-3Z"/>
  <path fill="#201F1E" d="M605 306h31l13 29c1.9-2.85 3.32-5.63 4.79-8.73.79-1.67.79-1.67 1.6-3.37.55-1.16 1.1-2.33 1.67-3.52 1.1-2.31 2.19-4.62 3.29-6.92.48-1.02.97-2.05 1.47-3.1C663 307 663 307 664 306c1.6-.09 3.2-.12 4.8-.11h3.09c1.11 0 2.22.01 3.36.01 1.7 0 1.7 0 3.43.01 3.63 0 7.25.01 10.88.03 2.45 0 4.91.01 7.36.01 6.03.01 12.05.03 18.08.05 2.15 5.52 3.94 11.02 5.48 16.73.22.8.44 1.61.66 2.43.46 1.68.91 3.35 1.36 5.03.69 2.57 1.39 5.13 2.09 7.7.44 1.63.89 3.27 1.33 4.91.21.76.42 1.52.63 2.31.92 3.45 1.45 6.29 1.45 9.89h2l.26-1.71c1.62-9.83 4.29-19.37 6.86-28.98.48-1.78.95-3.56 1.42-5.34 1.15-4.32 2.31-8.65 3.46-12.97h29c-3.38 13.5-3.38 13.5-5.33 19.71-.21.68-.42 1.35-.64 2.05-.69 2.18-1.37 4.37-2.07 6.55-.48 1.54-.96 3.08-1.45 4.62-1 3.2-2.01 6.41-3.03 9.61-1.29 4.09-2.58 8.19-3.87 12.29-.99 3.17-1.99 6.34-2.99 9.51-.48 1.51-.95 3.02-1.43 4.53-.66 2.11-1.32 4.22-1.99 6.33-.38 1.19-.76 2.39-1.14 3.62-.92 2.76-1.98 5.48-3.06 8.18h-31c-5.6-17.28-10.91-34.62-16-52.06-.69-2.35-1.37-4.69-2.06-7.03-1.65-5.64-3.3-11.27-4.94-16.91-2.93 3.48-5.24 6.99-7.43 10.97-.63 1.15-1.26 2.3-1.91 3.48-.66 1.2-1.32 2.41-1.97 3.61-.97 1.76-1.93 3.53-2.9 5.28-.65 1.18-1.29 2.35-1.92 3.53-1.52 2.79-3.09 5.46-4.88 8.09-5.64 8.45-6.01 15.99-5.93 25.79-.01 1.49-.03 2.97-.05 4.46-.04 3.6-.02 7.19-.01 10.79h-27c.08-2.04.16-4.09.24-6.19.42-18.24-1.8-30.41-12.28-45.81-3.34-5.11-6.22-10.46-9.15-15.81-.98-1.78-1.97-3.55-2.96-5.32-.6-1.09-1.21-2.17-1.83-3.28-.54-.96-1.07-1.92-1.62-2.91C607 311 607 311 605 306Z"/>
  <path fill="#26AE5B" d="M1189 296c8.21.66 16.39 1.44 24.57 2.34 1.19.13 1.19.13 2.4.26.71.08 1.41.15 2.14.23 2.07.21 2.07.21 4.89.17v20c-10.12 1.12-10.12 1.12-14.47.66-1.38-.14-1.38-.14-2.79-.28-.92-.11-1.85-.21-2.8-.32-1.44-.15-1.44-.15-2.91-.3-2.35-.25-4.69-.5-7.03-.76-1.19 14.35 3.71 25.75 9.61 38.47.85 1.83 1.68 3.67 2.52 5.51 1.17 2.56 2.39 5 3.72 7.48 6.82 13.46 6.04 27.12 5.83 41.89l-.03 8.13c-.02 6.36-.08 12.72-.15 19.08-.07 7.25-.11 14.51-.15 21.76-.07 14.89-.2 29.79-.35 44.68h-46c-.41-15.18-.74-30.36-.93-45.54-.09-7.06-.22-14.11-.43-21.17-.99-34.12.41-63.3 17.5-93.88 2.32-4.26 4.09-7.76 4.18-12.65l.06-2.43.03-2.57.06-2.67c.06-2.8.11-5.6.15-8.4l.12-5.72c.1-4.65.18-9.31.26-13.97Z"/>
  <path fill="#201F1E" d="M892 306h28c.64 3.23 1.28 6.45 1.93 9.77l1.86 9.35c.43 2.16.86 4.33 1.29 6.5.61 3.12 1.23 6.23 1.85 9.34.2.97.39 1.95.58 2.95.18.9.36 1.8.55 2.73.16.8.32 1.59.48 2.41.4 2.01.4 2.01 1.46 3.95.17-.86.17-.86.33-1.74 1.15-5.95 2.3-11.91 3.46-17.86l1.29-6.67c.61-3.19 1.23-6.38 1.85-9.57.2-1 .39-2 .58-3.03.27-1.38.27-1.38.55-2.79.16-.82.32-1.63.48-2.47C939 307 939 307 940 306c1.78-.09 3.56-.11 5.35-.1 1.08.01 2.16.01 3.27.01 1.7.01 1.7.01 3.44.03 1.71 0 1.71 0 3.46.01 2.83.01 5.65.03 8.48.05 2.79 10.32 4.74 20.75 6.69 31.25 1.09 5.86 2.18 11.72 3.31 17.75l10-49h28c-4.66 18.16-9.66 36.21-14.76 54.25-1.23 4.36-2.46 8.73-3.69 13.1L988 393h-28l-8-45c-1.61 5.48-1.61 5.48-2.76 10.96-.12.69-.24 1.38-.36 2.09-.11.72-.23 1.44-.35 2.18-.13.76-.26 1.52-.39 2.31l-1.2 7.21c-.41 2.42-.81 4.84-1.22 7.26-.25 1.49-.5 2.99-.74 4.49-.49 2.94-1.04 5.67-1.98 8.5h-27c-1.9-5.69-3.71-11.3-5.27-17.07-.31-1.13-.31-1.13-.62-2.28-.67-2.44-1.33-4.89-2-7.34-.46-1.71-.93-3.42-1.4-5.13l-2.91-10.7c-1.24-4.58-2.49-9.16-3.74-13.75-.96-3.52-1.92-7.04-2.88-10.57l-1.38-5.07-1.92-7.05c-.19-.7-.38-1.41-.58-2.13-1.3-4.8-1.3-4.8-1.3-5.91Z"/>
  <path fill="#C0C1C1" d="M291 121c15.58 8.5 31.15 17.05 46.41 26.11 6.35 3.77 12.75 7.45 19.15 11.14l6.66 3.84c3.42 1.98 6.85 3.95 10.28 5.92 3.35 1.93 6.71 3.86 10.06 5.8 1.04.6 2.07 1.19 3.14 1.8 1.42.82 1.42.82 2.87 1.66.83.48 1.67.96 2.53 1.46C394 180 394 180 395 182c-1.02.56-2.04 1.12-3.09 1.7-10.03 5.51-19.94 11.2-29.81 16.99-6.47 3.78-12.96 7.54-19.48 11.25-8.07 4.6-16.13 9.23-24.18 13.87-1.06.61-2.12 1.22-3.21 1.85-1.54.89-1.54.89-3.11 1.8-1.51.86-1.51.86-3.04 1.75a515.29 515.29 0 0 0-6.42 3.8c-1.07.64-2.14 1.28-3.25 1.94-.97.58-1.93 1.17-2.93 1.77C294 240 294 240 291 240V121Z"/>
  <path fill="#C0C1C2" d="M186 544v119c-7.26-3.96-14.49-7.93-21.69-12l-2.99-1.69c-8.03-4.55-16.01-9.19-23.97-13.86-7.3-4.27-14.63-8.48-21.97-12.66-17.65-10.06-17.65-10.06-25.57-14.67-.69-.39-1.39-.79-2.1-1.2-4.59-2.69-4.59-2.69-5.71-4.92 1.02-.56 2.04-1.12 3.09-1.7 10.02-5.51 19.92-11.19 29.79-16.97 6.73-3.94 13.47-7.84 20.24-11.71.87-.49 1.74-.99 2.64-1.5l11.13-6.33c1.16-.66 2.32-1.32 3.49-1.98 1.07-.61 2.15-1.22 3.26-1.85 2.49-1.45 4.95-2.93 7.41-4.45.68-.42 1.36-.83 2.06-1.27 1.31-.8 2.62-1.62 3.92-2.45 3.37-2.08 4.89-2.79 8.97-2.79l1-3c5.05-2 5.05-2 7-2Z"/>
  <path fill="#201F1E" d="M448 306c13.3-.09 13.3-.09 26.88-.19l8.42-.08c2.23-.01 4.46-.02 6.69-.02 1.14-.02 2.27-.03 3.45-.05 9.84 0 18.62 1.23 25.93 8.26 3.86 4.92 4.97 10.61 4.57 16.77-1.03 6.32-4.16 11.04-8.94 15.31 1.05.28 1.05.28 2.12.56 4.87 2.44 7.84 6.37 10.26 11.19 1.66 8.63 1.24 16.6-3.38 24.25-5.38 6.47-12.77 10.42-21.13 11.35-3.52.11-7.01.1-10.53.04-1.7-.01-1.7-.01-3.43-.01-4.18-.02-8.36-.08-12.53-.13-9.37-.08-18.73-.17-28.38-.25v-87Zm27 22v12c2.56.05 5.12.09 7.69.12l2.18.06c4.15.03 7.45-.17 11.13-2.18 1.39-2.79 1.26-4.92 1-8-3.15-2.1-3.86-2.24-7.45-2.2-.85.01-1.69.02-2.57.02l-2.67.06-2.7.02c-2.21.03-4.41.06-6.61.1Zm0 29v15c3.06.08 6.12.14 9.19.19.86.02 1.73.05 2.62.07 4.92.06 8.18-.07 12.19-3.26 1.37-1.16 1.37-1.16 1.31-4.31-.03-3.59-.03-3.59-1.66-5.9-4.21-2.84-8.45-2.21-13.4-2.04-.98.02-1.97.04-2.98.05-2.42.05-4.85.12-7.27.2Z"/>
  <path fill="#20201E" d="M700 417c12.75-.12 12.75-.12 25.75-.25 3.99-.05 3.99-.05 8.05-.11l6.43-.03 3.29-.06c10.62-.01 20.29 2.42 28.51 9.41 9.44 9.79 12.33 23.33 12.12 36.56-.73 11.93-3.81 22.64-12.15 31.48-13.68 11.99-30.82 10.5-47.81 10.25-7.98-.08-15.97-.17-24.19-.25v-87Zm28 23v41c13.88 1.12 13.88 1.12 21-3 5.26-5.38 7.06-9.9 7.38-17.31-.14-6.83-1.96-12.21-6.76-17.13-7.54-4.49-12.34-3.56-21.62-3.56Zm-119-23c9.55-.06 19.1-.12 28.94-.19 3-.02 5.99-.05 9.08-.08 2.4-.01 4.8-.02 7.19-.02 1.23-.02 2.46-.03 3.73-.05 10.78 0 18.28 1.59 26.17 9.18 4.96 5.68 5.45 11.76 5.24 19.12-.73 6.37-2.62 11.95-7.6 16.16L679 463c.4.42.8.85 1.21 1.29.53.58 1.06 1.17 1.6 1.77.52.57 1.05 1.14 1.58 1.73 4.68 6.45 5.37 13.16 6.23 20.9.25 2.04.49 4.09.73 6.13.1.9.2 1.8.31 2.73.33 2.73.33 2.73 1.34 6.45h-28c-1.8-6.31-2.66-12-3.34-18.48-.79-4.22-1.85-7.14-5.33-9.79-3.48-1.09-6.97-1.2-10.58-1.35-2.56-.13-5.12-.25-7.75-.38v30h-28v-87Zm28 21v17l7.06.12c1.31.03 2.62.05 3.98.08 4.01-.2 7.21-.78 10.96-2.2 2.46-3.69 2.39-5.63 2-10-1.71-2.92-4.4-3.82-7.62-4.66-5.41-.77-10.93-.44-16.38-.34Z"/>
  <path fill="#201F1E" d="M710 195c9.03-.06 18.07-.12 27.38-.19l8.58-.08c2.27-.01 4.54-.02 6.81-.02 1.16-.02 2.32-.03 3.51-.05 9.74 0 18.33 1.27 26.03 7.62 5.03 5.11 6.34 10.97 6.72 17.99-.08 7.98-2.3 14.01-8.03 19.73-1.49.5-1.49.5-3 1v2c.58.21 1.15.41 1.75.62 4.88 2.98 6.77 8.09 8.25 13.38.48 3.16.78 6.32 1.06 9.5l.48 4.97c.06.73.13 1.45.19 2.2.32 2.79.81 5.56 1.27 8.33h-27c-1.59-6.38-2.6-12.25-3.34-18.73-.7-3.46-1.47-5.51-3.66-8.27-4.01-2.32-8.28-2.42-12.81-2.62-2.37-.13-4.75-.25-7.19-.38v30h-27v-87Zm27 22v16c2.73.05 5.46.09 8.19.12l2.33.06c4.27.03 7.63-.1 11.48-2.18 2.55-2.55 2.35-4.45 2.56-7.93-.46-2.27-.46-2.27-2.47-4.31-4.35-2.48-7.99-2.2-12.9-2.01-1.33.03-1.33.03-2.68.05-2.17.05-4.34.12-6.51.2Zm78 89h73v23h-45v10h40v21h-40v10h46v23h-74v-87ZM601.008 201.313c9.08 7.69 15.02 17.95 16.21 29.9.78 15.38-1.39 29.87-12 41.78-9.33 8.88-20.71 11.51-33.22 12.01-11.03-.38-21.04-4.09-29.31-11.5-9.28-10.15-13-22.9-12.66-36.43.61-12.88 4.16-23.46 12.97-33.07 16.12-14 40.58-15.46 58.01-2.69Zm-38.01 18.69c-5.07 6.62-6.31 14.84-5.81 23.07 1.05 6.9 3.11 11.55 8.44 16.24 4.01 2.85 6.42 3.02 11.37 2.69 6.2-2.31 8.81-5.66 11.75-11.44 2.75-7.96 2.37-17.83-.69-25.66-2.35-4.23-5.4-7.35-10.06-8.9-6.12-.71-10.26-.3-15 4ZM622 195h27c.04 3.79.07 7.59.11 11.5l.15 11.08c.04 2.55.06 5.11.09 7.67.03 3.69.08 7.37.14 11.06 0 1.13.01 2.27.02 3.44.12 6.44.58 12.4 3.49 18.25 2.9 2.66 4.59 2.96 8.5 3.38 3.77-.41 5.59-.97 8.5-3.38 1.84-3.71 2.27-6.78 2.32-10.89l.06-3.52.03-3.77.06-3.88c.05-3.39.09-6.78.13-10.17.04-3.47.09-6.93.14-10.4.1-6.79.18-13.58.26-20.37h27c.09 8.15.16 16.31.21 24.46.02 3.79.05 7.58.09 11.37.05 3.66.07 7.32.08 10.99.01 1.39.02 2.78.04 4.16.18 11.66-1.17 21.67-9.5 30.37-9.96 8.56-24.18 9.14-36.72 8.44-10.11-1.17-18.69-4.16-25.73-11.77-5.18-7.14-6.6-15.56-6.58-24.21v-3.64c0-1.28.01-2.56.01-3.88 0-1.34.01-2.67.01-4.01 0-3.5.01-7 .02-10.51.01-3.58.02-7.16.02-10.73.01-7.02.03-14.03.05-21.04Zm207.375 219.688c.84 0 1.67.01 2.53.01 11.06.21 19.99 3.19 27.91 11.11 4.33 6.32 5.18 10.39 5.18 18.19h-26c-.65-1.65-1.32-3.3-2-5-2.95-2.52-5.33-3.2-9.12-3.31-3.93 0-3.93 0-6.88 2.31.2 2.45.2 2.45 1 5 1.67 1.31 1.67 1.31 3.94 2 .9.32 1.79.64 2.72.98 3.31 1.01 6.63 1.93 9.98 2.83 11.42 3.05 21.51 5.79 28.36 16.19 3.55 8.47 2.52 16.2-.79 24.55-1.58 3.21-3.43 5.22-6.21 7.45-.7.68-1.4 1.36-2.12 2.07-12.16 8.19-28.75 8.7-42.8 6.25-9.37-2.65-16.49-7.33-22.08-15.32-2.97-5.75-3-9.11-3-16h27c1.33 2.97 2.64 5.94 4 9 3.76 1.88 5.04 2.28 9 2.25.85.01 1.7.01 2.57.02 2.63-.29 4.25-.78 6.43-2.27.82-3.06.82-3.06 1-6-3.1-2.62-5.9-3.77-9.79-4.9-1.13-.33-2.25-.67-3.41-1.01-1.75-.51-1.75-.51-3.54-1.02-21.29-6.17-21.29-6.17-28.26-16.07-3.29-6.73-2.66-13.64-.43-20.62 3.02-7.59 7.89-12.03 15.15-15.55 6.63-2.39 12.66-3.19 19.66-3.14Zm24.91-215.063c5.07 4.06 8.35 9.05 9.71 15.38v7h-25c-.99-1.98-1.98-3.97-3-6-4.37-2.97-9.05-1.8-14-1l-1 5c3.18 2.7 6.02 3.78 10.02 4.86 1.75.5 1.75.5 3.54 1 2.45.67 4.89 1.33 7.34 2 10.13 2.86 18.04 6.25 24.1 15.14 3.27 6.53 2.89 14.75.94 21.68-3.11 8.05-8.65 12.7-16.31 16.31-14.32 5.5-30.2 5.39-44.3-.74-6.67-3.61-11.11-8.45-14.33-15.25-1-4-1-4-1-13h27c.66 2.63 1.32 5.27 2 8 2.26 2.54 3.53 2.92 6.88 3.43h3.12l3.13.06c2.97-.3 2.97-.3 5.31-2.21 1.79-2.18 1.79-2.18 1.66-4.88-.91-2.6-.91-2.6-3.47-3.81-1.05-.36-2.11-.72-3.19-1.09-1.17-.42-2.34-.83-3.54-1.25-4.06-1.33-8.13-2.57-12.21-3.82-8.94-2.75-16.36-5.28-21.69-13.43-3.1-6.35-3.15-13.93-1.24-20.68 3.68-8.62 9-13.78 17.65-17.31 13.52-4.33 29.97-3.57 41.88 4.61Z"/>
  <path fill="#20201E" d="M544 417h28c2.56 6.94 5.13 13.88 7.69 20.83 1.19 3.23 2.39 6.47 3.58 9.7 4.97 13.44 9.91 26.88 14.75 40.36.66 1.84 1.33 3.68 1.99 5.52l1.19 3.33 1.06 2.94C603 502 603 502 603 504h-29l-3-12h-27l-2 9-1 3h-28c.68-3.39 1.32-6.15 2.47-9.33.3-.83.6-1.65.9-2.51.33-.89.65-1.78.99-2.7.34-.94.68-1.88 1.03-2.86 1.12-3.07 2.24-6.15 3.36-9.22.77-2.12 1.54-4.24 2.3-6.35 6.56-18.05 13.22-36.05 19.95-54.03Zm14 32c-3.25 6.99-7 15.24-7 23h14c-.62-2.52-1.25-5.04-1.88-7.56-.17-.71-.34-1.41-.52-2.14-1.11-4.46-2.31-8.88-3.6-13.3h-1Z"/>
  <path fill="#201F1E" d="M511.438 199.75c7.9 6.7 11.3 14.18 13.56 24.25v4h-27l-3-9c-3.9-2.87-9.31-2.53-14-2-5.1 1.93-6.69 5.3-9 10-2.36 6.92-2.14 17.83.19 24.69 2.48 4.54 4.83 7.65 9.81 9.31 4.97.37 8.11.24 12-3 2.01-3.38 3.05-6.17 4-10h27c0 10.4-2.69 18.63-9.98 26.25-9.92 8.6-21.34 11.27-34.26 10.57-10.85-1.28-20.53-5.35-28.01-13.48-9.86-13.17-10.93-27.51-9.75-43.34 1.84-11.53 7.58-21.07 17-28 14.95-9.58 36.52-10.59 51.44-.25ZM561 306h27c2.32 5.23 4.54 10.23 6.49 15.57.44 1.21.88 2.42 1.34 3.67.47 1.3.94 2.6 1.42 3.89.49 1.37.99 2.73 1.49 4.09 1.04 2.85 2.08 5.7 3.11 8.55 1.32 3.61 2.63 7.22 3.95 10.82 1.03 2.82 2.06 5.63 3.08 8.45.48 1.33.97 2.65 1.45 3.98 3.39 9.28 6.58 18.6 9.67 27.98h-29c-3-9-3-9-3-12h-27l-3 11c-1 1-1 1-3.68 1.11-1.17 0-2.34-.01-3.54-.01-1.89-.01-1.89-.01-3.82-.01l-4.02-.03c-1.35 0-2.69-.01-4.04-.01-3.3-.01-6.6-.03-9.9-.05 6.77-19.47 13.86-38.81 21.06-58.12l1.29-3.47c1.23-3.29 2.46-6.57 3.69-9.86l1.12-3c.34-.92.69-1.84 1.04-2.79.3-.8.6-1.61.91-2.43.94-2.45 1.91-4.89 2.89-7.33Zm13 32c-1.17 3.81-2.33 7.62-3.5 11.44-.33 1.09-.67 2.17-1.01 3.3-.48 1.55-.48 1.55-.96 3.13-.29.96-.59 1.92-.89 2.91-.69 1.99-.69 1.99-.64 3.22h15c-2.86-12.2-2.86-12.2-7-24h-1Z"/>
  <path fill="#20201E" d="M437 417h31l13 28c2.41-3.21 3.99-5.81 5.66-9.39.49-1.02.97-2.04 1.46-3.09.5-1.06 1-2.12 1.5-3.21 1-2.11 1.99-4.21 2.98-6.32.66-1.4.66-1.4 1.32-2.83C495 418 495 418 496 417c2.22-.09 4.44-.11 6.66-.1 1 0 1 0 2.01.01 2.13 0 4.26.01 6.39.03 1.44 0 2.88.01 4.32.01 3.54.01 7.08.03 10.62.05a76.475 76.475 0 0 1-4.4 9.56c-.47.87-.95 1.74-1.43 2.64-.51.92-1.02 1.85-1.55 2.8-.78 1.44-.78 1.44-1.59 2.91-5.11 9.3-10.36 18.52-15.66 27.72-.46.78-.91 1.56-1.37 2.37l-2.12 3.3c-2.16 3.78-2.42 7.02-2.49 11.38-.02.7-.03 1.4-.05 2.13-.05 2.21-.07 4.42-.09 6.63l-.09 4.53c-.08 3.67-.12 7.35-.16 11.03h-27c.08-2.04.16-4.09.24-6.19.42-18.22-1.79-30.33-12.23-45.71-3.53-5.45-6.58-11.17-9.68-16.87-1.06-1.95-2.13-3.89-3.21-5.83-4.99-9.01-4.99-9.01-6.12-12.4Z"/>
  <path fill="#017D44" d="M1213 416h1v89h-46c-.08-6.35-.16-12.7-.25-19.25-.04-2-.07-4-.11-6.06l-.03-4.77-.06-2.49c-.01-5.82-.01-5.82 2.35-8.99 2.1-1.44 2.1-1.44 4.1-1.44l1-3c1.26-.59 1.26-.59 2.54-1.18 4.77-2.51 8.04-6.04 11.77-9.88.73-.74 1.46-1.47 2.21-2.22 3.67-3.54 3.67-3.54 6.48-7.72h2c.09-.84.09-.84.19-1.69 1.14-3.25 3.36-4.92 5.81-7.31 2.02-2.95 3.35-5.48 4-9h3v-4Z"/>
  <path fill="#34B055" d="M1147 398h14v107h-27c-.27-9.98-.49-19.96-.62-29.94a807.9 807.9 0 0 0-.29-13.92c-.67-23.27-.22-42.07 12.91-62.14l1-1Z"/>
  <path fill="#201F1E" d="M775 306h27v87h-27v-87Z"/>
  <path fill="#46B253" d="M1189 296c8.21.66 16.39 1.44 24.57 2.34 1.19.13 1.19.13 2.4.26.71.08 1.41.15 2.14.23 2.07.21 2.07.21 4.89.17v20c-10.12 1.12-10.12 1.12-14.47.66-1.38-.14-1.38-.14-2.79-.28-.92-.11-1.85-.21-2.8-.32-.96-.1-1.92-.2-2.91-.3-2.35-.25-4.69-.5-7.03-.76-.73 13.11 2.54 23.1 8.05 34.96 2.71 5.85 4.53 10.6 4.95 17.04.94 2.39.94 2.39 2 4h-3l1 5c-3.46.5-3.46.5-7 1v-3h-6c-1.5-3.37-2-5.2-2-9h-9v2h-2l1 7h4l-2 4-1-2-2.75.75c-3.25.25-3.25.25-5.63-1.69-.53-.68-1.07-1.36-1.62-2.06 1.6-5.39 3.55-10.24 6.1-15.25 10.58-21.55 11.76-40.97 10.9-64.75Z"/>
  <path fill="#36B155" d="M1116.2 442.477c1.73.07 1.73.07 3.49.15l3.51.1c2.8.27 2.8.27 3.8 1.27.09 1.91.12 3.81.11 5.72v3.7c0 1.34-.01 2.68-.01 4.02 0 1.37 0 2.74-.01 4.1 0 3.61-.01 7.21-.02 10.81-.01 3.67-.02 7.35-.02 11.02-.01 7.21-.03 14.42-.05 21.63h-28c-.23-5.55-.43-11.08-.55-16.63-.05-1.88-.12-3.76-.2-5.64-.66-14.44 1.72-23.39 10.75-34.73.7-.95 1.4-1.91 2.13-2.9 1.87-2.1 1.87-2.1 5.07-2.62Z"/>
  <path fill="#1E211C" d="M1272.313 460.188c6.74 7.05 8.05 14.72 7.97 24.22-.49 6.3-2.64 10.53-6.53 15.4-7.86 6.25-14.69 7.33-24.75 6.19-6.22-1.66-10.59-5.62-14-11-3.98-8.07-4.14-16.18-1.44-24.69 2.5-6.16 5.69-10.63 11.87-13.4 9.77-3.22 18.28-2.4 26.88 3.28Zm-26.12 9.81c-3.11 5.23-2.76 11.11-2.19 17 1.42 4.11 3.34 6.56 7 9 4.63.68 8.7.64 12.93-1.43 3.9-4.84 5.43-10.06 5-16.26-.86-5.32-3.08-8.88-7.37-12.18-5.88-2.58-11.08-.87-15.37 3.87Z"/>
  <path fill="#20211E" d="M1530.988 459.219c4.8 3.7 7.62 7.88 9.01 13.78 1.02 9.31 1.1 18.32-5 26-6.9 6.54-12.9 7.46-22.25 7.28-6.56-.49-9.99-2.52-14.56-7.09-4.08-5.94-5.74-10.86-5.63-18.06l.03-2.13c.25-7.65 2.05-13.06 7.6-18.37 9.26-7.15 20.89-7.49 30.8-1.41Zm-24.8 11.22c-2.83 6.11-3.03 11.91-1 18.31 2 3.59 3.2 5.29 6.81 7.25 3.83.75 7.3.85 10.85-.92 3.71-2.81 5.29-5.58 6.15-10.08.77-6.42 0-11.76-4-17-6.61-4.5-13.76-4.35-18.81 2.44Z"/>
  <path fill="#1F201C" d="M1286 459h11v11h12v-11h10v11h7v7h-7c.49 9.4.49 9.4 1 19 2.97.5 2.97.5 6 1v8c-6.33 1.19-10.32 1.19-16-2-1.3-2.61-1.11-4.53-1.1-7.45.01-1.07.01-2.15.01-3.26l.03-3.41c0-1.14.01-2.28.01-3.45.01-2.81.03-5.62.05-8.43h-12l1 19 6 1v8c-6.27 1.18-10.46 1.39-16-2-1.76-3.44-2.24-6.24-2.2-10.08.01-.93.02-1.86.02-2.82l.06-2.91c0-.98.01-1.96.02-2.97.03-2.41.06-4.81.1-7.22h-5v-7h5v-11Z"/>
  <path fill="#1F201D" d="M1547 459h10v11h12v-11h10v11h7v7h-7c.14 2.79.29 5.58.44 8.38l.12 2.4c.13 4.25.13 4.25 1.44 8.22 2.53.66 2.53.66 5 1v8c-2.65 1.32-4.43 1.02-7.38.81-1.43-.08-1.43-.08-2.89-.17-3.43-.81-4.54-1.91-6.73-4.64-.45-2.66-.45-2.66-.39-5.64l.04-3.24c.03-1.11.07-2.23.1-3.37.02-1.13.04-2.25.05-3.41.05-2.78.12-5.56.2-8.34h-12l1 20h6v8c-2.65 1.32-4.43 1.02-7.38.81-1.43-.08-1.43-.08-2.89-.17-3.43-.81-4.54-1.91-6.73-4.64-.45-2.66-.45-2.66-.39-5.64.01-1.07.03-2.14.04-3.24.03-1.11.07-2.23.1-3.37.02-1.13.04-2.25.05-3.41.05-2.78.12-5.56.2-8.34h-6v-7h6v-11Z"/>
  <path fill="#1E201C" d="M1622 470h12l5 18c1.39-4.16 2.59-8.14 3.62-12.38.27-1.05.53-2.11.79-3.21.2-.79.39-1.59.59-2.41h11c2.47 8.91 2.47 8.91 5 18 2.52-6.71 2.52-6.71 4.69-13.5.43-1.49.86-2.97 1.31-4.5h11c-1.84 8.03-4.13 15.84-6.62 23.69l-.95 3.01-.91 2.81c-.27.84-.53 1.68-.81 2.55C1667 504 1667 504 1666 505c-3.67.14-7.33.04-11 0l-5-18c-.43 1.3-.87 2.6-1.31 3.94-1.57 4.68-3.13 9.37-4.69 14.06h-11c-1.41-4.34-2.81-8.68-4.22-13.02-.48-1.48-.95-2.96-1.43-4.43-.69-2.13-1.38-4.25-2.06-6.38-.22-.66-.43-1.31-.65-1.99-.99-3.05-1.86-6.07-2.64-9.18Z"/>
  <path fill="#1F201C" d="M1362 470h11c2.13 6.3 4.11 12.62 6 19l5-19h11c.67 2.42 1.34 4.83 2 7.25.19.68.38 1.36.58 2.07.92 3.39 1.42 6.14 1.42 9.68h2c.11-.7.22-1.4.33-2.12 1-5.97 2.35-11.29 4.67-16.88h11c-1.4 4.66-2.81 9.33-4.22 13.99-.48 1.59-.95 3.17-1.43 4.76-.69 2.28-1.38 4.56-2.06 6.84-.22.71-.43 1.42-.65 2.15-1.53 5.03-1.53 5.03-2.64 7.26h-11c-.4-1.32-.4-1.32-.8-2.67-.36-1.16-.71-2.32-1.08-3.52-.34-1.15-.69-2.29-1.05-3.48-.9-2.82-1.97-5.58-3.07-8.33l-5 18h-11c-2.66-6.88-4.95-13.85-7.19-20.88-.55-1.7-.55-1.7-1.11-3.45-.35-1.08-.7-2.17-1.06-3.29-.31-.98-.63-1.97-.95-2.98-.69-2.4-.69-2.4-.69-4.4Z"/>
  <path fill="#1E211B" d="m1695.375 468.75 3.96-.08c3.9.35 5.65.88 8.66 3.33 2.87 3.92 3.41 6.8 3.52 11.61.03 1.25.07 2.5.1 3.78.04 1.94.04 1.94.07 3.92.04 1.32.07 2.63.11 3.98.08 3.24.15 6.47.2 9.71h-14c-1.48.5-1.48.5-3 1-4.91.4-9.45.63-14.06-1.25-3.26-2.95-3.85-4.78-4.25-9.19.35-3.91.77-5.6 3.31-8.56 6.15-3.6 13.03-4.11 20-5-.66-1.65-1.31-3.3-2-5h-8c-.32 1.32-.66 2.64-1 4h-11c.14-2.95.3-5.2 2.3-7.48 5.01-4.23 8.68-4.69 15.08-4.77Zm-1.38 21.12c-1.05.25-1.05.25-2.12.5-2.09.55-2.09.55-3.88 2.63.33 2.6.33 2.6 1 5 3.77 1.05 5.38 1.34 8.88-.56 2.43-2.31 2.43-2.31 2.44-5.69-.11-.91-.21-1.81-.32-2.75-2.14 0-3.91.38-6 .87Z"/>
  <path fill="#1E201D" d="m1605.375 468.75 3.96-.08c3.9.35 5.65.88 8.66 3.33 2.87 3.92 3.41 6.8 3.52 11.61.03 1.25.07 2.5.1 3.78.04 1.94.04 1.94.07 3.92.04 1.32.07 2.63.11 3.98.08 3.24.15 6.47.2 9.71h-14c-1.48.5-1.48.5-3 1-4.91.4-9.45.63-14.06-1.25-3.26-2.95-3.85-4.78-4.25-9.19.35-3.91.77-5.6 3.31-8.56 6.15-3.6 13.03-4.11 20-5-.66-1.65-1.31-3.3-2-5h-8c-.32 1.32-.66 2.64-1 4h-11c.14-2.95.3-5.2 2.3-7.48 5.01-4.23 8.68-4.69 15.08-4.77Zm-1.38 21.12c-1.05.25-1.05.25-2.12.5-2.09.55-2.09.55-3.88 2.63.33 2.6.33 2.6 1 5 3.77 1.05 5.38 1.34 8.88-.56 2.43-2.31 2.43-2.31 2.44-5.69-.11-.91-.21-1.81-.32-2.75-2.14 0-3.91.38-6 .87Z"/>
  <path fill="#1F1F1D" d="M1434.375 468.688c1.29-.02 2.57-.03 3.9-.05 3.98.39 6.36 1.24 9.72 3.36 2.43 3.64 2.31 5.53 2.42 9.86l.06 2c.06 2.11.1 4.22.15 6.33l.12 4.29c.09 3.51.18 7.02.25 10.52-1.62.03-3.24.05-4.87.07l-2.74.03c-2.39-.1-2.39-.1-4.39-1.1-.59.3-1.18.61-1.78.92-4.14 2.03-8.72 1.63-13.22 1.08-3.15-1.29-5.43-2.87-7-6-.53-4.47-.58-7.94 1.63-11.93 5.31-4.62 12.64-4.94 19.37-6.07.33-1.65.67-3.3 1-5-3.33-.33-3.33-.33-7 0-.59.66-1.19 1.32-1.81 2-3.18 2.92-5.97 2.31-10.14 2.14-1.01-.07-1.01-.07-2.05-.14.32-3.46.61-5.51 2.82-8.25 4.5-3.6 7.75-4.04 13.56-4.06Zm-5.38 22.31c-1.67 2.47-1.67 2.47-2 5 1.64 1.69 1.64 1.69 4 3 3.5-.07 5.3-.34 7.88-2.75 1.31-2.61 1.37-4.36 1.12-7.25-3.77 0-7.46.67-11 2Z"/>
  <path fill="#1F201C" d="M1344.375 468.688c1.29-.02 2.57-.03 3.9-.05 3.98.39 6.36 1.24 9.72 3.36 2.43 3.64 2.31 5.53 2.42 9.86l.06 2c.06 2.11.1 4.22.15 6.33l.12 4.29c.09 3.51.18 7.02.25 10.52-1.62.03-3.24.05-4.87.07l-2.74.03c-2.39-.1-2.39-.1-4.39-1.1-.59.3-1.18.61-1.78.92-4.14 2.03-8.72 1.63-13.22 1.08-3.15-1.29-5.43-2.87-7-6-.53-4.47-.58-7.94 1.63-11.93 5.31-4.62 12.64-4.94 19.37-6.07.33-1.65.67-3.3 1-5-3.33-.33-3.33-.33-7 0-.59.66-1.19 1.32-1.81 2-3.18 2.92-5.97 2.31-10.14 2.14-1.01-.07-1.01-.07-2.05-.14.32-3.46.61-5.51 2.82-8.25 4.5-3.6 7.75-4.04 13.56-4.06Zm-5.38 22.31c-1.67 2.47-1.67 2.47-2 5 1.64 1.69 1.64 1.69 4 3 3.5-.07 5.3-.34 7.88-2.75 1.31-2.61 1.37-4.36 1.12-7.25-3.77 0-7.46.67-11 2Z"/>
  <path fill="#1F201E" d="M1353 414c5.5 5.5 6 10.32 6 18h-25c1.41 5.19 1.41 5.19 5.31 6.5 3.65.83 3.65.83 6.57-.81 1.98-1.52 1.98-1.52 3.12-2.69 1.52-.07 3.04-.08 4.56-.06.83.01 1.66.02 2.51.02l1.93.04c-.51 4.43-1.8 6.88-5 10-5.47 2.98-10.9 3.94-17.04 2.53-5.16-1.62-7.94-3.91-10.96-8.53-2.64-6.24-2.58-12.7-.25-19.05 2.52-4.92 6.09-7.73 11.19-9.7 6.79-.82 11.39-.04 17.06 3.75Zm-18 6.88c-1.14 2.03-1.14 2.03-1 4.12h14c-1.45-4.58-1.45-4.58-3-6-5.53-.71-5.53-.71-10 1.88Z"/>
  <path fill="#20201D" d="M1610.375 412.625c3.27 2.96 4.91 5.3 6.62 9.38v10h-24c1.4 5.08 1.4 5.08 4.82 6.43 3.57.63 5.07.34 8.18-1.43.33-.67.67-1.32 1-2h10c-1.23 5.77-4.16 8.86-9 12-5.3 1.73-10.35 1.48-15.62-.07-4.41-2.53-8.36-5.89-10.02-10.86-1.14-6.65-.96-12.46 2.45-18.39 6.15-8.66 16.54-9.41 25.57-5.06Zm-16.31 7.69c-1.33 1.78-1.33 1.78-1.07 4.69h14c-1.33-4.95-1.33-4.95-4-6-4.72-.47-4.72-.47-8.93 1.31Z"/>
  <path fill="#1F201D" d="M1646 412c2.18 1.87 3.38 3.54 5 6v4c-1.62.08-3.25.14-4.88.19-.9.03-1.8.07-2.74.1-1.18-.14-1.18-.14-2.38-.29l-2-3c-3.58-.25-3.58-.25-7 0v3c1.11.3 2.22.61 3.36.92 1.46.42 2.93.84 4.39 1.27.73.19 1.46.39 2.21.59 4.76 1.41 7.4 2.77 10.04 7.22.48 3.83.34 6.2-1.19 9.75-2.86 3.56-6.29 5.6-10.81 6.25-6.1.41-11.51-.1-17-3-3.2-3.67-4-5.1-4-10 1.6-.11 3.21-.19 4.81-.25.9-.05 1.79-.09 2.71-.14 3.26.51 3.59 1.81 5.48 4.39 2.28.48 2.28.48 4.69.25 1.21-.05 1.21-.05 2.45-.11.61-.05 1.23-.09 1.86-.14.11-1.96.11-1.96-1-4a63.881 63.881 0 0 0-7.81-2.5c-9.23-2.38-9.23-2.38-12.19-6.5-.8-3.08-.64-5.89 0-9 6.11-8.44 16.97-8.75 26-5Z"/>
  <path fill="#20201E" d="M1388 412c2.18 1.87 3.38 3.54 5 6v4c-1.62.08-3.25.14-4.88.19-.9.03-1.8.07-2.74.1-1.18-.14-1.18-.14-2.38-.29l-2-3c-3.58-.25-3.58-.25-7 0v3c1.11.3 2.22.61 3.36.92 1.46.42 2.93.84 4.39 1.27.73.19 1.46.39 2.21.59 4.76 1.41 7.4 2.77 10.04 7.22.48 3.83.34 6.2-1.19 9.75-2.86 3.56-6.29 5.6-10.81 6.25-6.1.41-11.51-.1-17-3-3.2-3.67-4-5.1-4-10 1.6-.11 3.21-.19 4.81-.25.9-.05 1.79-.09 2.71-.14 3.26.51 3.59 1.81 5.48 4.39 2.28.48 2.28.48 4.69.25 1.21-.05 1.21-.05 2.45-.11.61-.05 1.23-.09 1.86-.14.11-1.96.11-1.96-1-4a63.881 63.881 0 0 0-7.81-2.5c-9.23-2.38-9.23-2.38-12.19-6.5-.8-3.08-.64-5.89 0-9 6.11-8.44 16.97-8.75 26-5Zm151-1c2.82 1.82 4.5 3.01 6 6 .09 2.25.11 4.5.1 6.76 0 .66-.01 1.32-.01 2.01 0 2.12-.01 4.24-.03 6.35 0 1.44-.01 2.88-.01 4.31-.01 3.53-.03 7.05-.05 10.57h-10l-.06-2.16c-.1-3.21-.2-6.43-.32-9.65l-.09-3.4-.12-3.25c-.04-1.48-.04-1.48-.09-3-.16-2.78-.16-2.78-2.32-5.54-3-.42-3-.42-6 0-4.26 4.26-3.3 12.11-3.56 17.88-.05.87-.09 1.75-.13 2.66-.11 2.15-.21 4.31-.31 6.46h-10v-36h10l1 2c.97-.52 1.94-1.03 2.94-1.56 4.47-1.91 8.41-1.75 13.06-.44Z"/>
  <path fill="#1F201E" d="M1279 411c2.82 1.82 4.5 3.01 6 6 .09 2.25.11 4.5.1 6.76 0 .66-.01 1.32-.01 2.01 0 2.12-.01 4.24-.03 6.35 0 1.44-.01 2.88-.01 4.31-.01 3.53-.03 7.05-.05 10.57h-10l-.06-2.16c-.1-3.21-.2-6.43-.32-9.65l-.09-3.4-.12-3.25c-.04-1.48-.04-1.48-.09-3-.16-2.78-.16-2.78-2.32-5.54-3-.42-3-.42-6 0-4.26 4.26-3.3 12.11-3.56 17.88-.05.87-.09 1.75-.13 2.66-.11 2.15-.21 4.31-.31 6.46h-10v-36h10l1 2c.97-.52 1.94-1.03 2.94-1.56 4.47-1.91 8.41-1.75 13.06-.44Z"/>
  <path fill="#00773F" d="M1161 474v31h-27v-26c3.46-.5 3.46-.5 7-1 2.21-.67 2.21-.67 4.12-1.5 5.64-2.22 9.63-2.5 15.88-2.5Z"/>
  <path fill="#1F201D" d="M1547 411h11l7 20 3.86-12.42c.24-.76.48-1.53.73-2.33.25-.79.49-1.58.75-2.39.66-1.86.66-1.86 1.66-2.86 1.69-.07 3.38-.08 5.06-.06.92.01 1.84.02 2.79.02.71.02 1.42.03 2.15.04-1.52 7.76-3.94 15.05-6.56 22.5-.41 1.19-.83 2.38-1.25 3.61-3.05 8.75-3.05 8.75-4.19 9.89-1.85.07-3.71.08-5.56.06-1.01-.01-2.03-.02-3.07-.02L1559 447c-2.97-7.24-5.68-14.55-8.25-21.94-.55-1.54-.55-1.54-1.1-3.11-.52-1.47-.52-1.47-1.04-2.98-.31-.88-.62-1.77-.94-2.68-.67-2.29-.67-2.29-.67-5.29Zm-259 0h11l6 19c1.66-2.5 2.45-4.02 3.29-6.79.22-.72.44-1.43.66-2.16.22-.74.45-1.48.67-2.24.23-.75.46-1.5.7-2.27.56-1.84 1.12-3.69 1.68-5.54h11c-2.05 7.82-4.43 15.44-7.12 23.06-.36 1.03-.72 2.06-1.09 3.13-2.64 7.51-2.64 7.51-3.79 9.81h-12c-1.57-4.48-3.14-8.97-4.7-13.45-.53-1.53-1.06-3.05-1.6-4.58-.77-2.19-1.53-4.38-2.29-6.58-.24-.68-.48-1.36-.73-2.06-1.15-3.34-1.68-5.74-1.68-9.33Z"/>
  <path fill="#21211C" d="M1400 401h11v10h7v8h-7v19h7v9c-1.9.08-3.79.14-5.69.19l-3.2.1c-3.52-.33-5.32-1.14-8.11-3.29-1-3-1.12-4.97-1.1-8.11.01-.98.01-1.96.01-2.97l.03-3.11c0-1.03.01-2.07.01-3.14.01-2.55.03-5.11.05-7.67h-5v-8h5v-10Z"/>
  <path fill="#1F201C" d="M1658 401h10v10h7v8h-7l1 18c2.98.7 2.98.7 6 1v9c-1.89.11-3.79.19-5.69.25-1.05.05-2.11.09-3.2.14-3.11-.39-3.11-.39-5.99-1.64-3.5-4.53-2.64-9.46-2.43-15 .03-1.69.03-1.69.07-3.41.05-2.78.14-5.56.24-8.34h-6v-8h6v-10Z"/>
  <path fill="#03854A" d="M1127 482v23h-28v-19c7.38-.77 14.59-1.13 22-1v-2c3-1 3-1 6-1Z"/>
  <path fill="#1E2020" d="M1234 398h11v49h-11v-49Z"/>
  <path fill="#201F1D" d="M1495 398h11v49h-11v-49Z"/>
  <path fill="#1F211F" d="M1716 411v9c-2.98.59-2.98.59-5.96 1.17-2.7 1.1-3.51 2.36-5.04 4.83-.5 2.41-.5 2.41-.51 4.98-.04.94-.07 1.87-.11 2.84-.03 1.45-.03 1.45-.07 2.93-.03.98-.07 1.97-.1 2.98-.08 2.42-.15 4.85-.21 7.27h-11v-36h10l1 3c1.05-.68 2.1-1.36 3.19-2.06 3.28-1.91 5.12-2.28 8.81-.94Z"/>
  <path fill="#40B252" d="M1470 407h5v98h-5v-98Z"/>
  <path fill="#0C7D39" d="M1197 379c3.06 1.94 3.06 1.94 5 5 .91 4.97.79 8.72-1.88 13.06-3.22 2.94-4.97 3.06-9.24 3-.92-.01-1.83-.02-2.76-.02L1186 400l-1-3c-1.32-.7-2.65-1.37-4-2-1.78-3.56-1.88-7.14-1-11 4.41-5.89 10.18-7.41 17-5Z"/>
  <path fill="#1D201D" d="M1678 411h10v36h-10v-36Z"/>
  <path fill="#019454" d="M1161 474v12h-26l-1-7c.99-.1 1.98-.21 3-.31 3.62-.51 6.77-1.66 10.16-2.99 4.62-1.76 8.93-1.8 13.84-1.7Z"/>
  <path fill="#18AB5D" d="m1471 458 1 4h2l1-4v47h-5c-.03-6.53-.04-13.07-.05-19.6l-.03-6.67c-.01-3.19-.01-6.38-.02-9.57 0-1-.01-2-.01-3.03v-2.79c-.01-.82-.01-1.63-.01-2.47.12-1.87.12-1.87 1.12-2.87Z"/>
  <path fill="#1E221D" d="M1250 330c3.12 1.79 4.55 3.2 6.31 6.31 1.2 4.69 1.15 8.36-.43 12.94-2.31 3.38-4.04 4.4-7.88 5.75-4.01.58-5.65.19-9.25-1.75-3.15-2.58-4.49-4.39-5.05-8.43-.03-5.94.89-9.13 4.92-13.63 3.74-1.87 7.3-1.85 11.38-1.19Zm-10.38 4.5c-2.22 3.42-2.84 6.44-2.62 10.5 1.57 3.62 2.69 4.79 6 7 4.91-.15 4.91-.15 8.88-2.75 1.3-2.61 1.98-4.31 2.12-7.25-1.28-3.6-2.28-6.28-5-9-3.79-.42-6.1-.57-9.38 1.5Z"/>
  <path fill="#1D2319" d="M1375 330h3l1 7c1.05-.27 2.1-.54 3.19-.81 3.81-.19 3.81-.19 6.75 1.69 2.38 3.61 2.82 5.71 2.52 9.96-.46 2.16-.46 2.16-2.27 5.28C1386 355 1386 355 1375 354v-24Zm4.19 10.56c-1.69 3.46-1.08 5.76-.19 9.44l2 2c3.3-.33 4.62-.62 7-3 .49-4.7.49-4.7-1.25-8.94-2.89-1.75-5.02-1.69-7.56.5Z"/>
  <path fill="#1F261D" d="M1360 330h3v24c-11 1-11 1-14.19-.88-2.42-4.16-2.86-7.41-1.81-12.12 2.06-3.12 2.06-3.12 5-5 3.81.19 3.81.19 7 1l1-7Zm-8.75 10.06c-1.95 3.02-1.62 5.44-1.25 8.94 1.02 2.11 1.02 2.11 3 3 2.59 0 2.59 0 5-1 2.37-2.9 2.37-2.9 1.75-6.56-.44-3.49-.44-3.49-2.75-5.44-3.77-.35-3.77-.35-5.75 1.06Z"/>
  <path fill="#1D261C" d="M1270 336c3.01 2.03 4.67 3.54 5.48 7.16.26 4.25-.16 6.35-2.54 9.96-2.94 1.88-2.94 1.88-6.75 1.69-1.05-.27-2.11-.53-3.19-.81l-1 6h-3v-23c7.31-1.46 7.31-1.46 11-1Zm-6.75 4.12c-1.83 2.75-1.65 4.64-1.25 7.88 1.38 2.34 1.38 2.34 3 4 2.44-.27 2.44-.27 5-1 2.37-2.9 2.37-2.9 1.75-6.56-.44-3.49-.44-3.49-2.75-5.44-3.79-.36-3.79-.36-5.75 1.12Z"/>
  <path fill="#1E241D" d="M1341 336c3.42 2.31 3.93 3.67 4.75 7.75.12 1.61.12 1.61.25 3.25h-13l3 4c2.47-.34 2.47-.34 5-1l1-2 4 1c-2.75 4.88-2.75 4.88-5 6-3.93.52-5.54.31-8.88-1.94-2.48-3.58-2.86-5.63-2.6-9.9 1.34-6 5.74-8.26 11.48-7.16Zm-6.81 4.31c-1.38 1.62-1.38 1.62-1.19 3.69h9l-1-4c-3.59-1.19-3.59-1.19-6.81.31Z"/>
  <path fill="#1C251C" d="M1314 336c2.18 1.13 2.18 1.13 4 3 .39 2.92.39 2.92.25 6.19-.04 1.08-.07 2.17-.11 3.29L1318 351h2v3l-2.56-.06c-3.5-.02-3.5-.02-7.13.68-3.31.38-3.31.38-6.31-1.62-.94-2.38-.94-2.38-1-5 1.67-2.61 3-3.77 6.05-4.47 1.98-.25 3.96-.4 5.95-.53l-1-3c-2.42-.25-2.42-.25-5 0-.99 1.49-.99 1.49-2 3h-3c.31-2.38.31-2.38 1-5 3.49-2.33 4.9-2.42 9-2Zm-7 12 1 4c3.93-.57 3.93-.57 7-3v-3c-3.77 0-4.91.24-8 2Z"/>
  <path fill="#1C251A" d="M1289 337c1.94 1.12 1.94 1.12 3 3 .19 3.69.19 3.69 0 7h-12l1 4c2.92.25 2.92.25 6 0l2-3h3c-.48 4.56-.48 4.56-2.62 6.38-3.42.89-5.97.43-9.38-.38-2.63-1.67-2.94-2.8-3.81-5.81-.27-4.53.49-7.68 3.5-11.13 3.41-1.57 5.73-.97 9.31-.06Zm-7.81 3.31c-1.38 1.62-1.38 1.62-1.19 3.69h9l-1-4c-3.59-1.19-3.59-1.19-6.81.31Z"/>
  <path fill="#1D261B" d="M1392 337c1.86.21 1.86.21 4 1 1.75 2.86 2.76 5.86 4 9l4-10h3c-.61 5.41-2.44 9.92-4.56 14.88-.5 1.17-.5 1.17-1 2.37-.81 1.92-1.62 3.83-2.44 5.75h-6v-2l3-1c1.39-4.51.51-6.91-1.44-11.12-2.56-5.6-2.56-5.6-2.56-8.88Z"/>
  <path fill="#1D241C" d="M1678 398h10v9h-10v-9Z"/>
  <path fill="#1F201C" d="M1322 332h3v5h4v2h-4l1 12 3 1v2c-2 .04-4 .04-6 0-1-1-1-1-1.1-4.16l.04-3.9c.01-1.29.02-2.58.02-3.91.02-1 .03-2 .04-3.03h-3v-2h3v-5Z"/>
  <path fill="#AC3B43" d="m227 279-1 6c-1.07.12-2.15.25-3.25.38-3.89.64-6.43 1.2-9.13 4.1-2.17 2.04-4.64 2.73-7.42 3.69-2.99 1.13-5.74 2.62-8.54 4.16-.55.22-1.09.44-1.66.67l-2-1c1.81-2.21 2.96-2.99 5.72-3.86 3.59-1.25 6.4-2.91 9.59-4.95C223.9 279 223.9 279 227 279Z"/>
  <path fill="#1F251C" d="M1303 336v4c-1.21.53-1.21.53-2.44 1.06-2.81 1.69-2.81 1.69-3.11 4.57-.24 2.8-.4 5.57-.45 8.37h-3v-17c7-1 7-1 9-1Z"/>
  <path fill="#D3ABAA" d="m133 573 1 2h-2c-.09.63-.18 1.25-.27 1.89-.73 2.11-.73 2.11-2.4 3.12-.69.22-1.37.45-2.08.68-.72.23-1.43.47-2.17.72-2.34.67-4.67 1.21-7.08 1.59l-1 4-10 2c2.77-2.77 4.95-4.25 8.32-6.14 1.03-.57 2.06-1.15 3.12-1.74 1.07-.6 2.14-1.19 3.25-1.81 1.08-.6 2.16-1.21 3.28-1.84 2.67-1.49 5.35-2.98 8.03-4.47Z"/>
  <path fill="#912C34" d="M233 515c-2.78 3.25-6.39 5.12-10.06 7.19-.96.55-.96.55-1.93 1.11-4.75 2.7-4.75 2.7-7.01 2.7v-2l2-1 1-3h7v-3c3.13-1.86 5.37-2.2 9-2Z"/>
  <path fill="#A16A6C" d="M276 251c-3.19 1.96-6.43 3.84-9.69 5.69-.76.43-1.53.87-2.32 1.32-1.99.99-1.99.99-3.99.99v-2c13.07-7.46 13.07-7.46 16-6Z"/>
  <path fill="#977674" d="m236 267 7 2c-3.2 2.74-6 4.63-10 6v-3h4l-1-5Z"/>
  <path fill="#AD4047" d="m177 547 1 2c-1.03.43-2.06.87-3.12 1.31-3.36 1.44-6.63 3.02-9.88 4.69 1.08-3.14 1.95-3.97 4.88-5.69 2.41-1.01 4.56-1.82 7.12-2.31Z"/>
  <path fill="#A6313A" d="m193 298 1 2c-1.06 1.5-1.06 1.5-3 3-3.69.19-3.69.19-7 0 .56-.27 1.11-.54 1.69-.81 2.51-1.29 4.9-2.72 7.31-4.19Z"/>
  <path fill="#C5ABA7" d="M374 189h7c-2.69 2.25-4.65 3.88-8 5l-1-2h3l-1-3Z"/>
</svg>
