<?xml version="1.0" standalone="no"?>
<!DOCTYPE svg PUBLIC "-//W3C//DTD SVG 20010904//EN"
 "http://www.w3.org/TR/2001/REC-SVG-20010904/DTD/svg10.dtd">
<svg version="1.0" xmlns="http://www.w3.org/2000/svg"
 width="1000.000000pt" height="247.000000pt" viewBox="0 0 1000.000000 247.000000"
 preserveAspectRatio="xMidYMid meet">

<g transform="translate(0.000000,247.000000) scale(0.100000,-0.100000)"
fill="#000000" stroke="none">
<path d="M1040 2455 c-453 -74 -830 -394 -975 -827 -104 -312 -80 -651 66
-942 163 -322 444 -548 799 -642 129 -35 370 -44 510 -20 512 89 916 492 1005
1000 21 124 20 321 -4 443 -34 178 -86 304 -185 452 -179 268 -457 457 -778
527 -101 22 -331 27 -438 9z m343 -621 c98 -25 191 -78 270 -153 114 -109 168
-216 189 -375 29 -215 -86 -442 -326 -644 -98 -81 -261 -192 -285 -192 -30 0
-246 155 -337 243 -188 179 -274 344 -274 523 0 111 14 173 62 273 74 156 227
280 398 325 74 20 227 20 303 0z"/>
<path d="M1141 1511 c-65 -23 -96 -45 -138 -100 -75 -97 -79 -232 -11 -333 61
-90 154 -134 264 -125 110 8 193 67 239 168 24 54 27 71 23 133 -6 89 -30 138
-98 200 -83 73 -175 93 -279 57z"/>
<path d="M3861 2090 c-168 -23 -302 -91 -427 -215 -79 -78 -97 -104 -143 -195
-78 -160 -94 -231 -95 -435 -1 -202 17 -294 89 -440 173 -356 576 -513 958
-375 336 123 539 495 496 911 -38 372 -253 647 -571 728 -91 23 -223 32 -307
21z m292 -297 c187 -89 289 -282 289 -553 1 -146 -16 -230 -68 -338 -137 -285
-517 -349 -728 -121 -113 122 -162 281 -153 498 9 225 83 385 222 478 85 56
153 73 270 70 88 -2 108 -6 168 -34z"/>
<path d="M7227 1640 c-66 -11 -166 -60 -216 -105 l-41 -37 0 61 0 61 -140 0
-140 0 0 -605 0 -605 140 0 139 0 3 398 c3 386 4 398 25 438 28 52 90 108 139
125 62 21 144 16 195 -12 34 -19 50 -37 74 -84 l30 -60 3 -402 3 -403 140 0
139 0 0 413 c-1 441 -7 523 -50 608 -55 109 -146 179 -266 204 -75 16 -105 17
-177 5z"/>
<path d="M8440 1640 c-290 -45 -490 -301 -490 -624 1 -199 58 -353 176 -471
214 -214 588 -221 809 -14 57 53 139 180 125 192 -8 6 -233 88 -235 85 -1 -2
-7 -17 -14 -35 -17 -42 -72 -98 -124 -126 -35 -19 -58 -22 -142 -22 -89 0
-106 3 -151 27 -87 46 -156 148 -171 254 l-6 44 428 0 427 0 -4 123 c-5 141
-34 245 -94 335 -116 176 -321 265 -534 232z m193 -246 c82 -28 157 -128 157
-211 l0 -23 -281 0 -280 0 7 23 c32 105 110 189 204 218 44 13 145 10 193 -7z"/>
<path d="M9810 1616 c-72 -20 -122 -51 -173 -105 l-47 -50 0 79 0 80 -145 0
-145 0 0 -605 0 -605 145 0 144 0 3 373 3 372 27 47 c61 103 149 148 291 148
l87 0 0 140 0 140 -72 -1 c-40 0 -93 -6 -118 -13z"/>
<path d="M4853 1598 c4 -13 85 -284 182 -602 96 -319 175 -581 175 -583 0 -1
56 -3 123 -3 l124 0 57 203 c31 111 81 287 110 391 29 104 55 185 58 180 3 -5
51 -173 107 -374 56 -201 105 -373 107 -382 5 -16 20 -18 128 -18 l123 0 178
588 c98 323 180 595 183 605 4 16 -7 17 -134 17 l-139 0 -99 -373 c-55 -204
-103 -383 -109 -397 -7 -21 -28 45 -116 370 l-108 395 -116 3 -116 3 -14 -48
c-8 -26 -56 -204 -107 -395 -51 -192 -96 -346 -98 -343 -3 2 -53 179 -111 392
l-107 388 -143 3 -143 3 5 -23z"/>
</g>
</svg>
